<svg width="22" height="22" viewBox="0 0 22 22" fill="none" xmlns="http://www.w3.org/2000/svg">
<path d="M16.4458 8.59791C16.4458 9.1237 16.2353 9.73235 15.8539 10.4174C15.4762 11.0961 14.9731 11.7773 14.4647 12.4476C14.0622 12.9782 13.9242 13.4729 13.8274 13.8202C13.8209 13.8433 13.8147 13.8658 13.8085 13.8876C13.7138 14.223 13.6569 14.3599 13.4879 14.5063C13.2308 14.7292 13.0304 14.7886 12.7969 14.8076C12.6592 14.8188 12.5057 14.8156 12.3004 14.8062C12.266 14.8047 12.23 14.8029 12.1926 14.8011C12.0186 14.7926 11.8139 14.7826 11.5979 14.7826C11.3891 14.7826 11.2164 14.7871 11.0651 14.791C10.8044 14.7977 10.6071 14.8028 10.3975 14.7806C10.1367 14.753 9.95058 14.6854 9.75775 14.5134C9.62747 14.3972 9.54707 14.2255 9.40328 13.8155C9.39683 13.7971 9.39025 13.7783 9.38353 13.759C9.25675 13.3956 9.07715 12.8808 8.68524 12.4168C8.09799 11.7216 7.60532 10.9952 7.26298 10.3149C6.91486 9.62304 6.75 9.03393 6.75 8.59791C6.75 5.92048 8.92048 3.75 11.5979 3.75C14.2753 3.75 16.4458 5.92048 16.4458 8.59791Z" stroke="#B7A878" stroke-width="1.5"/>
<rect x="9.50781" y="16.5781" width="4.17755" height="0.751958" rx="0.375979" fill="#B7A878" stroke="#B7A878" stroke-width="0.25"/>
<rect x="10.1777" y="18.2461" width="2.84073" height="0.751958" rx="0.375979" fill="#B7A878" stroke="#B7A878" stroke-width="0.25"/>
</svg>
